<?xml version="1.0" encoding="utf-8"?>
<!-- Generator: Adobe Illustrator 27.0.0, SVG Export Plug-In . SVG Version: 6.00 Build 0)  -->
<svg version="1.1" id="Layer_1" xmlns="http://www.w3.org/2000/svg" xmlns:xlink="http://www.w3.org/1999/xlink" x="0px" y="0px"
	 viewBox="0 0 512 512" style="enable-background:new 0 0 512 512;" xml:space="preserve">
<style type="text/css">
	.st0{opacity:0.968;fill-rule:evenodd;clip-rule:evenodd;fill:#0037FF;enable-background:new    ;}
	.st1{fill-rule:evenodd;clip-rule:evenodd;fill:#FF0000;}
	.st2{fill-rule:evenodd;clip-rule:evenodd;fill:#6A3538;}
	.st3{fill-rule:evenodd;clip-rule:evenodd;fill:#FF578F;}
	.st4{fill-rule:evenodd;clip-rule:evenodd;fill:#FF0666;}
</style>
<g>
	<path class="st0" d="M453.5,125.5c-3.4,1.4-6.8,1.2-10-0.5c-6.4-9.4-13.3-18.6-20.5-27.5c-0.6,5.4-0.4,10.7,0.5,16
		c2.8,30,5.1,60,7,90c13.3-1.9,26.3-4.6,39-8c7.3-0.5,14.3-2.2,21-5c-9-12.8-18.1-25.5-27.5-38c-2.2-4.4-1.7-8.4,1.5-12
		c5.2-2,9.3-0.7,12.5,4c11.4,16.2,22.9,32.2,34.5,48c0,2.7,0,5.3,0,8c-26.2,34.5-52.5,69-79,103.5c3.2,4.2,6,8.7,8.5,13.5
		c0.7,2.7,0.7,5.3,0,8c-6.7,7.9-13.2,15.9-19.5,24c13.9,30.7,26.9,61.7,39,93c-0.8,6.4-4.5,8.9-11,7.5c-26-12.9-52.2-25.4-78.5-37.5
		c-4.2,4.2-8.3,8.3-12.5,12.5c-41.7,0.7-83.3,0.7-125,0c-3-1.2-4.7-3.3-5-6.5c0.8-1.9,1.7-3.9,2.5-6c0.8-0.6,1.6-1.1,2.5-1.5
		c39.5-0.2,78.8-0.7,118-1.5c24.7-29.3,49-59,73-89c-21.3-34.7-42.7-69.4-64-104c-69.8-1.3-139.8-1.3-210,0
		c-21.3,34.7-42.7,69.3-64,104c24.1,30,48.5,59.8,73,89.5c15,0.3,30,0.7,45,1c2.9,1.7,4.2,4.2,4,7.5c0.1,3.1-1.3,5.2-4,6.5
		c-17.3,0.7-34.7,0.7-52,0c-4.2-4.2-8.3-8.3-12.5-12.5c-27.2,12.9-54.6,25.6-82,38c-6.9-1.2-9.2-5.2-7-12
		c12.7-29.7,25.6-59.4,38.5-89c-6.3-8.1-12.8-16.1-19.5-24c-0.7-2.7-0.7-5.3,0-8c2.5-4.8,5.3-9.3,8.5-13.5
		c-26-34.8-52.3-69.3-79-103.5c0-2.7,0-5.3,0-8c31.3-43.7,62.9-87.2,95-130.5c7.3-3.2,11.6-0.9,13,7c-1.9,17.8-3.6,35.6-5,53.5
		c14.7-0.2,29.3,0,44,0.5c5.2,4.9,5.3,10.1,0.5,15.5c-17.8,19.1-34.8,38.8-51,59c-0.8,3.3-0.6,6.4,0.5,9.5
		c11.9,2.4,23.7,4.9,35.5,7.5c3.4-3,6-6.7,8-11c0.9-1.2,2.1-2,3.5-2.5c74.7-0.7,149.3-0.7,224,0c1.4,0.5,2.6,1.3,3.5,2.5
		c1.9,4.5,4.7,8.2,8.5,11c11.7-2.6,23.3-5.1,35-7.5c1.3-4.2,1.2-8.3-0.5-12.5c-18-19.7-35.7-39.7-53-60c-1.4-4.7-0.3-8.5,3.5-11.5
		c14.7-0.5,29.3-0.7,44-0.5c-1.4-17.9-3.1-35.7-5-53.5c1.4-7.9,5.7-10.2,13-7c12.6,16.7,25.1,33.6,37.5,50.5
		C457.5,117,457.3,121.4,453.5,125.5z"/>
</g>
<g>
	<g>
		<path class="st1" d="M99.5,168.5c-1-1.4-1.3-3.1-1-5c0.3-8.7,1-17.4,2-26c8.7-0.2,17.3,0,26,0.5
			C117.6,148.3,108.6,158.5,99.5,168.5z"/>
	</g>
	<g>
		<path class="st1" d="M412.5,163.5c0.3,1.9,0,3.6-1,5c-9.1-10-18.1-20.2-27-30.5c8.7-0.5,17.3-0.7,26-0.5
			C411.5,146.1,412.2,154.8,412.5,163.5z"/>
	</g>
</g>
<g>
	<path class="st2" d="M98.5,163.5c-0.3,1.9,0,3.6,1,5c-0.3,0.8-0.8,1.5-1.5,2C97.2,168,97.4,165.6,98.5,163.5z"/>
</g>
<g>
	<path class="st2" d="M412.5,163.5c1.1,2.1,1.3,4.5,0.5,7c-0.7-0.5-1.2-1.2-1.5-2C412.5,167.1,412.8,165.4,412.5,163.5z"/>
</g>
<g>
	<g>
		<path class="st3" d="M423.5,113.5c15.8,27,31.2,54.3,46,82c-12.7,3.4-25.7,6.1-39,8C428.6,173.5,426.3,143.5,423.5,113.5z"/>
	</g>
	<g>
		<path class="st3" d="M360.5,216.5c-7-0.2-14,0-21,0.5c21.6,34.5,42.9,69.2,64,104c-23.4,29.5-47.1,58.8-71,88
			c6.3,0.5,12.7,0.7,19,0.5c-39.2,0.8-78.5,1.3-118,1.5c-0.9,0.4-1.8,0.9-2.5,1.5c-0.8,2.1-1.7,4.1-2.5,6c-6.7,0-13.3,0-20,0
			c0.2-3.3-1.1-5.8-4-7.5c-15-0.3-30-0.7-45-1c-24.5-29.7-48.9-59.5-73-89.5c21.3-34.7,42.7-69.3,64-104
			C220.7,215.2,290.7,215.2,360.5,216.5z"/>
	</g>
</g>
<g>
	<path class="st3" d="M87.5,97.5c0.7,1.8,1,3.8,1,6c-3.1,33.3-5.8,66.6-8,100c-19.7-3.6-39.3-7.4-59-11.5c-0.5-0.4-0.8-0.9-1-1.5
		C42.6,159.3,64.9,128.3,87.5,97.5z"/>
</g>
<g>
	<path class="st1" d="M453.5,125.5c3.9,4.8,7.6,9.8,11,15c-3.2,3.6-3.7,7.6-1.5,12c9.4,12.5,18.5,25.2,27.5,38
		c-6.7,2.8-13.7,4.5-21,5c-14.8-27.7-30.2-55-46-82c-0.9-5.3-1.1-10.6-0.5-16c7.2,8.9,14.1,18.1,20.5,27.5
		C446.7,126.7,450.1,126.9,453.5,125.5z"/>
</g>
<g>
	<path class="st1" d="M360.5,216.5c21.3,34.6,42.7,69.3,64,104c-24,30-48.3,59.7-73,89c-6.3,0.2-12.7,0-19-0.5
		c23.9-29.2,47.6-58.5,71-88c-21.1-34.8-42.4-69.5-64-104C346.5,216.5,353.5,216.3,360.5,216.5z"/>
</g>
<g>
	<g>
		<path class="st4" d="M26.5,208.5c32.5,6.2,64.8,12.9,97,20c1.1,0.9,1.2,1.9,0.5,3c-12,19.5-24.1,38.8-36.5,58
			C66.8,262.8,46.4,235.8,26.5,208.5z"/>
	</g>
	<g>
		<path class="st4" d="M479.5,208.5c1.8-0.3,3.5,0,5,1c-20.3,26.7-40.7,53.4-61,80c-12.4-19.2-24.5-38.5-36.5-58
			c-0.7-1.1-0.6-2.1,0.5-3C418.3,221.9,449,215.3,479.5,208.5z"/>
	</g>
	<g>
		<path class="st4" d="M100.5,362.5c10.3,11.7,20.3,23.7,30,36c-18.3,9.8-37,19.2-56,28c-0.3-0.3-0.7-0.7-1-1
			C82.3,404.4,91.3,383.4,100.5,362.5z"/>
	</g>
	<g>
		<path class="st4" d="M409.5,362.5c10.1,20.5,19.4,41.5,28,63c-0.3,0.3-0.7,0.7-1,1c-19-8.8-37.7-18.2-56-28
			C390.2,386.5,399.9,374.5,409.5,362.5z"/>
	</g>
</g>
</svg>
